<?xml version="1.0" standalone="no"?>
<!DOCTYPE svg PUBLIC "-//W3C//DTD SVG 20010904//EN"
 "http://www.w3.org/TR/2001/REC-SVG-20010904/DTD/svg10.dtd">
<svg version="1.0" xmlns="http://www.w3.org/2000/svg"
 width="257.000000pt" height="208.000000pt" viewBox="0 0 257.000000 208.000000"
 preserveAspectRatio="xMidYMid meet">

<g transform="translate(0.000000,208.000000) scale(0.100000,-0.100000)"
fill="#000000" stroke="none">
<path d="M266 1995 c-21 -7 -59 -33 -83 -57 -68 -67 -75 -103 -71 -370 3 -195
5 -227 22 -258 26 -49 64 -88 111 -113 37 -20 54 -22 230 -22 188 0 190 0 236
27 110 65 132 138 127 422 -5 217 -10 241 -64 305 -15 18 -48 43 -75 56 -46
24 -57 25 -221 25 -121 -1 -185 -5 -212 -15z m324 -405 l0 -181 -117 3 -118 3
-3 178 -2 177 120 0 120 0 0 -180z"/>
<path d="M1117 1968 c-102 -35 -121 -45 -138 -72 -23 -38 -24 -67 -3 -112 22
-46 65 -68 121 -61 l43 5 0 -159 c0 -120 -3 -159 -12 -161 -7 0 -17 -2 -23 -3
-5 -2 -25 -3 -42 -4 -76 -3 -126 -98 -88 -170 29 -57 59 -62 307 -59 l220 3
29 33 c24 27 29 41 29 83 0 43 -5 55 -29 80 -20 19 -40 29 -63 30 -18 1 -37 2
-43 4 -5 1 -18 3 -27 3 -17 2 -18 22 -18 268 l0 266 -34 34 c-45 45 -78 44
-229 -8z"/>
<path d="M1873 1145 c-103 -22 -190 -70 -263 -144 -77 -78 -113 -142 -140
-247 -39 -151 -16 -301 65 -429 152 -239 481 -316 734 -172 120 69 209 185
246 323 21 75 21 212 0 288 -73 276 -356 443 -642 381z m369 -362 c40 -36 26
-60 -134 -220 -118 -118 -159 -153 -179 -153 -33 0 -209 176 -209 209 0 26 34
61 60 61 10 0 49 -28 85 -61 l66 -62 123 122 c129 126 151 138 188 104z"/>
<path d="M286 880 c-65 -21 -129 -49 -142 -61 -30 -28 -39 -70 -24 -114 17
-52 52 -75 116 -75 l54 0 0 -160 0 -160 -45 0 c-26 0 -59 -7 -75 -15 -68 -35
-79 -135 -20 -187 l30 -28 225 0 c152 0 232 4 250 12 60 27 75 126 27 179 -23
26 -38 32 -87 38 l-60 6 -5 265 c-6 300 -8 310 -77 329 -47 14 -29 17 -167
-29z"/>
<path d="M1045 914 c-89 -22 -141 -59 -178 -128 -21 -39 -22 -53 -22 -291 l0
-250 27 -46 c27 -46 79 -89 131 -108 16 -6 106 -11 206 -11 171 0 179 1 230
26 29 15 55 33 58 40 3 7 -11 33 -30 56 -18 24 -42 58 -53 76 l-18 32 -158 0
-158 0 0 185 0 184 122 3 123 3 6 46 c4 26 17 74 29 108 13 34 20 65 16 69 -9
8 -300 13 -331 6z"/>
</g>
</svg>
