<?xml version="1.0" encoding="UTF-8"?>
<svg id="_Слой_2" data-name="Слой 2" xmlns="http://www.w3.org/2000/svg" viewBox="0 0 149.78 149.31">
  <defs>
    <style>
      .cls-1 {
        fill: #08f;
      }
    </style>
  </defs>
  <g id="_Слой_2-2" data-name=" Слой 2">
    <g id="Layer_1" data-name="Layer 1">
      <path class="cls-1" d="M135.44,134.41c-11.32-1.53-15.33-6-15.34-16.7,0-20.82,.02-41.65,.03-62.47v-3.36c-.49-.35-.98-.71-1.47-1.06-1.81,2.2-3.45,4.56-5.45,6.57-21.39,21.47-42.85,42.86-64.24,64.31-7.4,7.42-14.62,15.01-22.02,22.42-4.27,4.27-9.49,6.16-15.46,4.71-11.75-2.84-15.32-16.18-6.78-25.56,4.59-5.04,9.56-9.74,14.4-14.55,23.25-23.12,46.52-46.22,69.79-69.33,3.03-3.01,6.09-5.99,9.99-9.84-2.59-.14-4.1-.3-5.62-.3-21.16-.02-42.32,.03-63.47-.03-6.73-.02-12.1-3.73-13.96-9.33-2.22-6.69-.39-13.73,5.1-17.29C23.17,1.16,26.16,.21,28.8,.2,64.62,.04,100.44,.22,136.26,0c7.08-.04,13.61,6.56,13.52,13.99-.39,34.48-.17,68.97-.17,103.45,0,11.13-2.77,14.55-14.17,16.97h0Z"/>
    </g>
  </g>
</svg>