<?xml version="1.0" standalone="no"?>
<!DOCTYPE svg PUBLIC "-//W3C//DTD SVG 20010904//EN"
 "http://www.w3.org/TR/2001/REC-SVG-20010904/DTD/svg10.dtd">
<svg version="1.0" xmlns="http://www.w3.org/2000/svg"
 width="193.000000pt" height="192.000000pt" viewBox="0 0 193.000000 192.000000"
 preserveAspectRatio="xMidYMid meet">

<g transform="translate(0.000000,192.000000) scale(0.100000,-0.100000)"
fill="#000000" stroke="none">
<path d="M849 1910 c-194 -23 -389 -112 -537 -245 -66 -60 -164 -189 -206
-274 -208 -411 -91 -915 275 -1191 381 -287 912 -254 1253 78 342 334 382 882
91 1262 -52 67 -154 165 -215 207 -124 84 -296 147 -444 163 -102 11 -122 11
-217 0z m339 -139 c245 -71 452 -258 552 -499 106 -253 68 -569 -94 -797 -77
-107 -195 -208 -310 -265 -148 -73 -202 -85 -381 -85 -143 1 -154 2 -245 33
-282 98 -470 293 -557 579 -23 77 -26 105 -26 223 0 117 4 147 27 223 90 300
321 527 601 591 39 8 79 18 90 20 51 12 272 -3 343 -23z"/>
<path d="M926 1419 l-26 -20 0 -357 0 -357 -132 132 c-73 72 -143 134 -155
138 -17 4 -29 -1 -48 -19 -14 -14 -25 -31 -25 -38 0 -7 92 -104 204 -216 179
-180 206 -203 227 -197 35 10 409 386 409 411 0 26 -19 50 -47 59 -19 5 -46
-16 -165 -130 l-143 -136 -2 358 c-3 351 -3 358 -24 376 -27 22 -41 22 -73 -4z"/>
</g>
</svg>
