<?xml version="1.0" encoding="UTF-8"?>
<svg id="_Слой_2" data-name="Слой 2" xmlns="http://www.w3.org/2000/svg" xmlns:xlink="http://www.w3.org/1999/xlink" viewBox="0 0 365.03 365.03">
  <defs>
    <style>
      .cls-1 {
        fill: url(#_Безымянный_градиент_6);
      }

      .cls-2 {
        opacity: .4;
      }

      .cls-3 {
        fill: #4285f4;
      }

      .cls-4 {
        fill: #ffcd40;
      }

      .cls-5 {
        fill: #db4437;
      }

      .cls-6 {
        fill: #f1f1f1;
      }

      .cls-7 {
        fill: url(#_Безымянный_градиент_5);
      }

      .cls-8 {
        fill: url(#_Безымянный_градиент_5-2);
      }

      .cls-9 {
        opacity: .04;
      }

      .cls-10 {
        fill: #0f9d58;
      }
    </style>
    <radialGradient id="_Безымянный_градиент_5" data-name="Безымянный градиент 5" cx="24.15" cy="432.23" fx="24.15" fy="432.23" r="159.29" gradientTransform="translate(0 523.41) scale(1 -1)" gradientUnits="userSpaceOnUse">
      <stop offset="0" stop-color="#000"/>
      <stop offset="1" stop-color="#000"/>
    </radialGradient>
    <radialGradient id="_Безымянный_градиент_5-2" data-name="Безымянный градиент 5" cx="182.34" cy="341.61" fx="182.34" fy="341.61" r="182.08" xlink:href="#_Безымянный_градиент_5"/>
    <radialGradient id="_Безымянный_градиент_6" data-name="Безымянный градиент 6" cx="181.17" cy="432.53" fx="181.17" fy="432.53" r="160.86" gradientTransform="translate(0 523.41) scale(1 -1)" gradientUnits="userSpaceOnUse">
      <stop offset="0" stop-color="#3e2723"/>
      <stop offset="1" stop-color="#3e2723"/>
    </radialGradient>
  </defs>
  <g id="_Слой_1-2" data-name="Слой 1">
    <g id="_Слой_2-2" data-name=" Слой 2">
      <g id="Layer_1" data-name="Layer 1">
        <g>
          <path class="cls-5" d="M182.28,182.5h0V91.27h158.14C308.85,30.27,250.05,0,182.53,0S56.11,36.81,24.57,91.39L103.39,228.13l78.89-45.63Z"/>
          <path class="cls-4" d="M182.28,91.27v91.23h0l79.14,45.62-78.96,136.88h0c100.79,0,182.53-81.7,182.53-182.49,0-33.28-9.02-61.24-24.58-91.24H182.28Z"/>
          <path class="cls-10" d="M182.28,182.5h0l-78.89,45.62L24.5,91.38C8.99,118.22,0,149.28,0,182.5c0,100.79,81.72,182.5,182.52,182.5l78.9-136.88-79.14-45.62h0Z"/>
          <g class="cls-2">
            <polygon class="cls-7" points="24.37 91.38 140.02 207.04 103.49 228.12 24.37 91.38"/>
          </g>
          <g class="cls-2">
            <polygon class="cls-8" points="182.7 365.03 225.03 207.04 261.57 228.14 182.7 365.03"/>
          </g>
          <g class="cls-2">
            <polygon class="cls-1" points="340.52 91.09 182.54 133.42 182.54 91.23 340.52 91.09"/>
          </g>
          <circle class="cls-6" cx="182.53" cy="182.5" r="91.25"/>
          <circle class="cls-3" cx="182.53" cy="182.5" r="66.92"/>
          <g class="cls-9">
            <path d="M182.53,.5c24.57,0,48.4,4.81,70.84,14.3,21.67,9.17,41.14,22.29,57.85,39,16.71,16.71,29.84,36.18,39,57.85,9.49,22.44,14.3,46.27,14.3,70.84s-4.81,48.4-14.3,70.84c-9.17,21.67-22.29,41.14-39,57.85-16.71,16.71-36.18,29.84-57.85,39-22.44,9.49-46.27,14.3-70.84,14.3s-48.4-4.81-70.84-14.3c-21.67-9.17-41.14-22.29-57.85-39s-29.84-36.18-39-57.85C5.34,230.9,.53,207.07,.53,182.5s4.81-48.4,14.3-70.84c9.17-21.67,22.29-41.14,39-57.85S90.01,23.97,111.68,14.81C134.13,5.31,157.96,.5,182.53,.5m0-.5C81.74,0,.03,81.71,.03,182.5s81.71,182.5,182.5,182.5,182.5-81.71,182.5-182.5S283.32,0,182.53,0h0Z"/>
          </g>
        </g>
      </g>
    </g>
  </g>
</svg>